<svg width="136" height="135" viewBox="0 0 136 135" fill="none" xmlns="http://www.w3.org/2000/svg">
<path d="M135 133.653C127.675 95.5201 100.459 67.2007 68.0004 67.2007C35.5409 67.2007 8.32607 95.5201 1 133.653H135Z" fill="#0081DF"/>
<path d="M24.8916 110.31V133.653H111.109V110.31" stroke="#040606" stroke-miterlimit="10" stroke-linecap="round" stroke-linejoin="round"/>
<path d="M1 133.653H135" stroke="#040606" stroke-miterlimit="10" stroke-linecap="round" stroke-linejoin="round"/>
<path d="M33.1254 90.5662C35.1332 92.798 37.0545 95.1082 38.8779 97.4928C39.1901 97.9003 39.8928 97.4984 39.5758 97.0844C37.7103 94.644 35.751 92.278 33.6972 89.9945C33.3478 89.6063 32.7777 90.1796 33.1254 90.5662Z" fill="white"/>
<path d="M47.9544 81.2723C49.4059 79.7973 50.8573 78.3216 52.3088 76.8459C52.6743 76.4747 52.1026 75.903 51.7363 76.2742C50.2857 77.7499 48.8342 79.2256 47.3827 80.7006C47.018 81.0725 47.5889 81.6442 47.9544 81.2723Z" fill="white"/>
<path d="M57.6887 91.3317C59.1669 93.2708 60.5529 95.2769 61.8442 97.3446C62.1184 97.7852 62.8186 97.3801 62.5421 96.937C61.2515 94.8686 59.8647 92.8624 58.3874 90.9233C58.254 90.7487 58.0397 90.6613 57.8343 90.7786C57.662 90.8764 57.5569 91.1586 57.6887 91.3317Z" fill="white"/>
<path d="M71.1553 83.79C72.2089 81.9747 73.2617 80.1593 74.3145 78.344C74.5765 77.8936 73.8779 77.4861 73.6167 77.9357C72.5631 79.751 71.5111 81.5663 70.4574 83.3817C70.1963 83.8329 70.8941 84.2404 71.1553 83.79Z" fill="white"/>
<path d="M87.4283 75.9531C88.9323 77.3205 90.3296 78.8003 91.6088 80.3795C91.7471 80.5493 92.0374 80.5226 92.1805 80.3795C92.3487 80.2113 92.3188 79.9776 92.1805 79.8078C90.9013 78.2286 89.504 76.7488 88 75.3814C87.6167 75.0313 87.0434 75.6022 87.4283 75.9531Z" fill="white"/>
<path d="M83.526 87.2821C83.3958 89.4508 83.2656 91.6203 83.1346 93.789C83.1039 94.3081 83.9125 94.3065 83.9433 93.789C84.0743 91.6203 84.2044 89.4508 84.3346 87.2821C84.3662 86.7621 83.5575 86.7645 83.526 87.2821Z" fill="white"/>
<path d="M72.8797 102.72C73.9018 105.096 74.8867 107.487 75.8352 109.893C76.0244 110.372 76.8063 110.164 76.6155 109.679C75.6411 107.208 74.6279 104.752 73.5775 102.312C73.3722 101.835 72.6759 102.247 72.8797 102.72Z" fill="white"/>
<path d="M48.0259 112.796C49.0722 110.627 50.1186 108.457 51.1641 106.288C51.3897 105.821 50.6919 105.41 50.4655 105.879C49.4199 108.049 48.3736 110.219 47.3273 112.389C47.1025 112.855 47.7995 113.266 48.0259 112.796Z" fill="white"/>
<path d="M29.9528 118.855C31.5951 120.375 33.2374 121.893 34.8797 123.413C35.2606 123.765 35.8339 123.194 35.4514 122.84C33.8091 121.322 32.1668 119.803 30.5245 118.284C30.1428 117.931 29.5695 118.501 29.9528 118.855Z" fill="white"/>
<path d="M63.1151 120.151C63.9156 121.742 64.7161 123.331 65.5159 124.922C65.7512 125.387 66.4482 124.979 66.2153 124.514C65.4148 122.924 64.6134 121.333 63.8129 119.743C63.5792 119.279 62.8814 119.687 63.1151 120.151Z" fill="white"/>
<path d="M92.6572 116.68C94.4661 113.926 96.2766 111.17 98.0863 108.416C98.3726 107.98 97.6723 107.574 97.3884 108.008C95.5779 110.763 93.7683 113.518 91.9594 116.273C91.6724 116.709 92.3718 117.114 92.6572 116.68Z" fill="white"/>
<path d="M84.3828 125.537C85.3798 126.706 86.3769 127.876 87.3739 129.045C87.5162 129.211 87.8 129.191 87.9456 129.045C88.1105 128.88 88.0879 128.64 87.9456 128.473C86.9485 127.304 85.9515 126.135 84.9545 124.965C84.813 124.8 84.5283 124.82 84.3828 124.965C84.217 125.13 84.2405 125.371 84.3828 125.537Z" fill="white"/>
<path d="M97.7605 93.8478C100.157 94.675 102.555 95.5023 104.952 96.3303C105.445 96.5009 105.657 95.7198 105.167 95.5508C102.77 94.7227 100.372 93.8955 97.9748 93.0675C97.4824 92.8977 97.2705 93.678 97.7605 93.8478Z" fill="white"/>
<path d="M102.224 123.307C103.69 124.359 105.153 125.411 106.618 126.463C106.795 126.591 107.068 126.495 107.171 126.319C107.29 126.116 107.204 125.893 107.025 125.766C105.562 124.713 104.096 123.661 102.633 122.608C102.455 122.481 102.182 122.577 102.079 122.753C101.961 122.957 102.046 123.178 102.224 123.307Z" fill="white"/>
<path d="M45.6095 129.519C46.828 127.853 47.9884 126.144 49.0881 124.397C49.3663 123.955 48.6668 123.549 48.3903 123.988C47.2897 125.736 46.1302 127.444 44.9116 129.111C44.783 129.287 44.8817 129.562 45.0572 129.664C45.2617 129.784 45.4809 129.696 45.6095 129.519Z" fill="white"/>
<path d="M9.32418 126.412C10.7821 124.592 12.2393 122.772 13.6964 120.952C13.833 120.78 13.8613 120.549 13.6964 120.381C13.5565 120.237 13.2605 120.21 13.1247 120.381C11.6676 122.2 10.2104 124.02 8.75249 125.84C8.61502 126.012 8.58834 126.244 8.75249 126.412C8.89238 126.554 9.18834 126.582 9.32418 126.412Z" fill="white"/>
<path d="M17.3775 101.802C18.0947 104.022 18.8119 106.242 19.5284 108.462C19.6885 108.955 20.4688 108.744 20.3079 108.247C19.5915 106.027 18.8742 103.807 18.157 101.587C17.9985 101.094 17.2174 101.305 17.3775 101.802Z" fill="white"/>
<path d="M120.355 127.711C121.885 125.551 123.415 123.391 124.947 121.231C125.248 120.806 124.547 120.401 124.247 120.823C122.717 122.983 121.187 125.143 119.657 127.304C119.355 127.728 120.056 128.133 120.355 127.711Z" fill="white"/>
<path d="M117.316 104.146C117.316 106.488 117.316 108.83 117.316 111.172C117.316 111.692 118.125 111.693 118.125 111.172C118.125 108.83 118.125 106.488 118.125 104.146C118.125 103.627 117.316 103.626 117.316 104.146Z" fill="white"/>
<path d="M88.4804 25.0428C88.4804 23.6617 87.9629 22.4051 87.1163 21.4444C87.6039 20.5808 87.8845 19.5854 87.8845 18.5229C87.8845 16.5555 86.9279 14.8162 85.4586 13.7286C85.6373 13.1617 85.7352 12.5585 85.7352 11.9319C85.7352 8.63756 83.0643 5.96586 79.7684 5.96586C79.0277 5.96586 78.321 6.10738 77.666 6.35481C76.9851 3.80929 74.6693 1.9317 71.9095 1.9317C70.5574 1.9317 69.3162 2.38614 68.3151 3.14301C67.3084 1.27268 65.333 -9.53674e-05 63.0591 -9.53674e-05C61.0885 -9.53674e-05 59.3468 0.95974 58.26 2.43223C56.456 1.12308 53.794 1.04221 51.584 2.42575C49.4768 3.74623 48.3811 6.01845 48.6237 8.12975C46.5763 8.21627 44.5952 9.51653 43.6442 11.6351C42.7111 13.7108 43.0216 16.0016 44.2523 17.5881C42.4798 18.6223 41.2871 20.5388 41.2871 22.7382C41.2871 24.628 42.1677 26.3091 43.5383 27.4023C42.4353 28.2182 41.7165 29.5241 41.7165 31.0023C41.7165 33.475 43.721 35.4804 46.1946 35.4804C48.6682 35.4804 50.6727 33.475 50.6727 31.0023C50.6727 29.9349 50.2983 28.9565 49.6765 28.1875C51.7627 27.2576 53.2182 25.1697 53.2182 22.7382C53.2182 21.0668 52.5301 19.5579 51.4223 18.4752C52.2528 17.8768 52.9546 17.0488 53.4147 16.0259C53.9347 14.8679 54.0641 13.6453 53.8692 12.5124C55.0094 12.5043 56.1932 12.1785 57.2694 11.5049C57.8726 11.1273 58.3877 10.668 58.8171 10.1594C59.8991 11.2534 61.3998 11.9319 63.0591 11.9319C64.4103 11.9319 65.6524 11.4774 66.6526 10.7206C67.6593 12.5917 69.6348 13.8637 71.9095 13.8637C72.6502 13.8637 73.3569 13.7229 74.0119 13.4755C74.3652 14.7968 75.1585 15.9353 76.2291 16.7262C76.0496 17.2938 75.9525 17.897 75.9525 18.5229C75.9525 20.3067 76.7377 21.9021 77.9789 22.9954C77.7218 23.6277 77.5778 24.3183 77.5778 25.0428C77.5778 26.0665 77.8649 27.0207 78.3549 27.839C77.3482 28.8037 76.7183 30.1597 76.7183 31.6637C76.7183 34.5934 79.094 36.9683 82.0228 36.9683C84.9516 36.9683 87.3257 34.5934 87.3257 31.6637C87.3257 30.733 87.084 29.8589 86.6635 29.098C87.7761 28.1002 88.4804 26.656 88.4804 25.0428Z" fill="#040606"/>
<path d="M44.4927 17.6069C44.4927 17.6069 39.5739 18.6605 40.541 24.9395" stroke="#040606" stroke-miterlimit="10" stroke-linecap="round" stroke-linejoin="round"/>
<path d="M68.3149 3.14307C68.3149 3.14307 71.585 -1.03182 77.5776 2.45898" stroke="#040606" stroke-miterlimit="10" stroke-linecap="round" stroke-linejoin="round"/>
<path d="M68.1742 66.8801L64.1287 66.9748C60.5061 67.0589 57.5013 64.1915 57.4172 60.5689L57.2611 53.8735C57.1762 50.2517 60.0444 47.2469 63.6662 47.1628L67.7117 47.0674C71.3343 46.9833 74.3391 49.8515 74.4232 53.4733L74.5793 60.1686C74.6642 63.7904 71.796 66.7952 68.1742 66.8801Z" fill="white"/>
<path d="M68.1742 66.8801L64.1287 66.9748C60.5061 67.0589 57.5013 64.1915 57.4172 60.5689L57.2611 53.8735C57.1762 50.2517 60.0444 47.2469 63.6662 47.1628L67.7117 47.0674C71.3343 46.9833 74.3391 49.8515 74.4232 53.4733L74.5793 60.1686C74.6642 63.7904 71.796 66.7952 68.1742 66.8801Z" stroke="#040606" stroke-miterlimit="10"/>
<path d="M39.4713 39.2839C39.4503 42.1642 41.7889 44.5164 44.6926 44.5375C47.5963 44.5577 49.968 42.2394 49.9882 39.3591C50.0092 36.478 47.6707 34.1265 44.7662 34.1055C41.8632 34.0845 39.4915 36.4028 39.4713 39.2839Z" fill="white"/>
<path d="M39.4713 39.2839C39.4503 42.1642 41.7889 44.5164 44.6926 44.5375C47.5963 44.5577 49.968 42.2394 49.9882 39.3591C50.0092 36.478 47.6707 34.1265 44.7662 34.1055C41.8632 34.0845 39.4915 36.4028 39.4713 39.2839Z" stroke="#040606" stroke-miterlimit="10"/>
<path d="M47.6384 39.3428C47.6497 37.7498 46.3567 36.4487 44.75 36.4366" stroke="#040606" stroke-width="0.666667" stroke-miterlimit="10" stroke-linecap="round" stroke-linejoin="round"/>
<path d="M91.1413 38.079C91.2958 40.9552 89.0704 43.4143 86.1699 43.5703C83.2702 43.7264 80.7934 41.5213 80.639 38.6442C80.4837 35.768 82.709 33.309 85.6095 33.1529C88.5101 32.9968 90.9869 35.2027 91.1413 38.079Z" fill="white"/>
<path d="M91.1413 38.079C91.2958 40.9552 89.0704 43.4143 86.1699 43.5703C83.2702 43.7264 80.7934 41.5213 80.639 38.6442C80.4837 35.768 82.709 33.309 85.6095 33.1529C88.5101 32.9968 90.9869 35.2027 91.1413 38.079Z" stroke="#040606" stroke-miterlimit="10"/>
<path d="M82.9856 38.5181C82.9007 36.9267 84.1306 35.5674 85.7349 35.4809" stroke="#040606" stroke-width="0.666667" stroke-miterlimit="10" stroke-linecap="round" stroke-linejoin="round"/>
<path d="M81.9165 40.2279C82.0208 48.0893 75.6739 54.6059 67.8117 54.7102L63.1703 54.7717C55.3089 54.8752 48.7923 48.5284 48.688 40.667L48.4842 25.2467C48.3799 17.3853 54.7267 10.8687 62.5873 10.7644L67.2304 10.7029C75.0909 10.5986 81.6084 16.9454 81.7127 24.8068L81.9165 40.2279Z" fill="white"/>
<path d="M81.9165 40.2279C82.0208 48.0893 75.6739 54.6059 67.8117 54.7102L63.1703 54.7717C55.3089 54.8752 48.7923 48.5284 48.688 40.667L48.4842 25.2467C48.3799 17.3853 54.7267 10.8687 62.5873 10.7644L67.2304 10.7029C75.0909 10.5986 81.6084 16.9454 81.7127 24.8068L81.9165 40.2279Z" stroke="#040606" stroke-miterlimit="10"/>
<path d="M78.9403 40.6576C77.4265 43.4279 71.3223 40.0746 65.9021 39.4511C65.4687 39.401 65.1461 39.4083 64.6463 39.4511C59.2092 39.9064 53.1211 43.4279 51.6082 40.6576C49.9886 37.694 50.198 28.6456 50.198 28.6456H48.5298L48.6883 40.6673C48.7926 48.5287 55.3092 54.8755 63.1706 54.7712L67.8121 54.7105C75.6742 54.6062 82.0211 48.0896 81.9168 40.2282L81.7632 28.6456L80.6311 26.827C80.6311 26.827 80.5599 37.694 78.9403 40.6576Z" fill="#040606"/>
<path d="M78.9403 40.6576C77.4265 43.4279 71.3223 40.0746 65.9021 39.4511C65.4687 39.401 65.1461 39.4083 64.6463 39.4511C59.2092 39.9064 53.1211 43.4279 51.6082 40.6576C49.9886 37.694 50.198 28.6456 50.198 28.6456H48.5298L48.6883 40.6673C48.7926 48.5287 55.3092 54.8755 63.1706 54.7712L67.8121 54.7105C75.6742 54.6062 82.0211 48.0896 81.9168 40.2282L81.7632 28.6456L80.6311 26.827C80.6311 26.827 80.5599 37.694 78.9403 40.6576Z" stroke="#040606" stroke-miterlimit="10"/>
<path d="M70.173 42.1303C69.9353 44.2448 68.1757 45.9065 65.9924 45.9356C63.81 45.9648 62.0067 44.3499 61.7124 42.2427L70.173 42.1303Z" fill="white"/>
<path d="M70.173 42.1303C69.9353 44.2448 68.1757 45.9065 65.9924 45.9356C63.81 45.9648 62.0067 44.3499 61.7124 42.2427L70.173 42.1303Z" stroke="#040606" stroke-miterlimit="10" stroke-linecap="round" stroke-linejoin="round"/>
<path d="M56.3518 32.5173C56.3308 33.5806 55.4534 34.4256 54.3909 34.4054C53.3276 34.3852 52.4818 33.5078 52.5028 32.4445C52.5222 31.382 53.4004 30.537 54.4637 30.5572C55.5254 30.5766 56.3712 31.4548 56.3518 32.5173Z" fill="#040606"/>
<path d="M76.718 32.0414C76.6986 33.1047 75.8205 33.9497 74.7571 33.9303C73.6946 33.9101 72.8488 33.032 72.869 31.9694C72.8892 30.9061 73.7674 30.0611 74.8299 30.0813C75.8932 30.1007 76.7374 30.9789 76.718 32.0414Z" fill="#040606"/>
<path d="M72.771 27.8612C72.771 27.8612 75.4839 27.1908 77.5774 28.6455" stroke="#040606" stroke-miterlimit="10" stroke-linecap="round" stroke-linejoin="round"/>
<path d="M56.226 28.2482C56.226 28.2482 53.4864 27.7048 51.4624 29.2549" stroke="#040606" stroke-miterlimit="10" stroke-linecap="round" stroke-linejoin="round"/>
<path d="M66.9906 36.8954L63.499 36.9746L64.9917 29.3445" stroke="#040606" stroke-miterlimit="10" stroke-linecap="round" stroke-linejoin="round"/>
<path d="M47.6386 30.0806C47.6386 30.0806 53.3612 28.4075 53.8439 23.534C53.8439 23.534 63.1794 24.8941 66.9912 18.0015C66.9912 18.0015 69.2821 22.744 72.8683 21.5577C72.8683 21.5577 74.1815 24.8957 77.9472 24.8512C77.9472 24.8512 78.9693 29.1337 82.9816 28.7043C86.9932 28.2757 82.1771 12.0743 77.3407 9.70341C72.5044 7.33255 60.7172 4.96169 54.4269 9.70341C48.1359 14.4451 45.6922 22.5337 47.6386 30.0806Z" fill="#040606"/>
<path d="M78.74 71.8506H54.8963C52.1737 71.8506 49.9653 69.643 49.9653 66.9204V62.6865C49.9653 59.9639 52.1737 57.7564 54.8963 57.7564H78.74C81.4626 57.7564 83.6709 59.9639 83.6709 62.6865V66.9204C83.6709 69.643 81.4626 71.8506 78.74 71.8506Z" fill="#0081DF"/>
<path d="M60.4277 71.8506H61.0342V57.7564H60.4277V71.8506Z" fill="white"/>
<path d="M66.7862 57.7564H66.1797V71.8506H66.7862V57.7564Z" fill="white"/>
<path d="M53.4023 71.6196C53.5988 71.6819 53.8026 71.7296 54.0088 71.7676V57.8408C53.8026 57.878 53.5988 57.9257 53.4023 57.9879V71.6196Z" fill="white"/>
<path d="M73.0286 57.7564H72.4221L72.2329 71.8506H72.8394L73.0286 57.7564Z" fill="white"/>
<path d="M79.564 57.831C79.3651 57.7971 79.1629 57.7769 78.9575 57.7672V71.8403C79.1629 71.8306 79.3651 71.8104 79.564 71.7773V57.831Z" fill="white"/>
<path d="M78.74 71.8506H54.8963C52.1737 71.8506 49.9653 69.643 49.9653 66.9204V62.6865C49.9653 59.9639 52.1737 57.7564 54.8963 57.7564H78.74C81.4626 57.7564 83.6709 59.9639 83.6709 62.6865V66.9204C83.6709 69.643 81.4626 71.8506 78.74 71.8506Z" stroke="#040606" stroke-miterlimit="10" stroke-linecap="round" stroke-linejoin="round"/>
</svg>
