<svg width="31" height="18" viewBox="0 0 31 18" fill="none" xmlns="http://www.w3.org/2000/svg">
<path d="M1.66754 17C1.26003 17 0.938731 16.8903 0.703633 16.6709C0.484208 16.4358 0.374495 16.1223 0.374495 15.7305C0.374495 15.323 0.484208 15.0173 0.703633 14.8136C0.938731 14.6098 1.26003 14.508 1.66754 14.508H4.30064V2.96462H5.75825L2.3023 5.057C2.00451 5.2294 1.72239 5.29993 1.45595 5.26858C1.20518 5.22156 0.985751 5.11185 0.797672 4.93945C0.625267 4.75137 0.507717 4.53194 0.445024 4.28117C0.382331 4.0304 0.398005 3.77963 0.492044 3.52886C0.601757 3.26241 0.805509 3.04299 1.1033 2.87058L4.34766 0.919263C4.66112 0.731183 4.97459 0.574451 5.28805 0.449065C5.60152 0.308005 5.89147 0.237476 6.15792 0.237476C6.48706 0.237476 6.76134 0.331515 6.98076 0.519595C7.20019 0.692 7.3099 0.981955 7.3099 1.38946V14.508H9.70791C10.1154 14.508 10.4289 14.6098 10.6483 14.8136C10.8834 15.0173 11.0009 15.323 11.0009 15.7305C11.0009 16.138 10.8834 16.4514 10.6483 16.6709C10.4289 16.8903 10.1154 17 9.70791 17H1.66754ZM15.0355 17.1175C14.5026 17.1175 14.0716 16.953 13.7424 16.6238C13.429 16.2947 13.2722 15.8715 13.2722 15.3543C13.2722 14.8528 13.429 14.4453 13.7424 14.1318C14.0716 13.8027 14.5026 13.6381 15.0355 13.6381C15.584 13.6381 16.0072 13.8027 16.305 14.1318C16.6185 14.4453 16.7752 14.8528 16.7752 15.3543C16.7752 15.8715 16.6185 16.2947 16.305 16.6238C16.0072 16.953 15.584 17.1175 15.0355 17.1175ZM15.0355 8.86559C14.5026 8.86559 14.0716 8.70102 13.7424 8.37188C13.429 8.04275 13.2722 7.62741 13.2722 7.12586C13.2722 6.60865 13.429 6.19331 13.7424 5.87984C14.0716 5.5507 14.5026 5.38613 15.0355 5.38613C15.584 5.38613 16.0072 5.5507 16.305 5.87984C16.6185 6.19331 16.7752 6.60865 16.7752 7.12586C16.7752 7.62741 16.6185 8.04275 16.305 8.37188C16.0072 8.70102 15.584 8.86559 15.0355 8.86559ZM21.5958 17C21.1883 17 20.867 16.8903 20.6319 16.6709C20.4125 16.4358 20.3028 16.1223 20.3028 15.7305C20.3028 15.323 20.4125 15.0173 20.6319 14.8136C20.867 14.6098 21.1883 14.508 21.5958 14.508H24.2289V2.96462H25.6865L22.2306 5.057C21.9328 5.2294 21.6507 5.29993 21.3842 5.26858C21.1334 5.22156 20.914 5.11185 20.7259 4.93945C20.5535 4.75137 20.436 4.53194 20.3733 4.28117C20.3106 4.0304 20.3263 3.77963 20.4203 3.52886C20.53 3.26241 20.7338 3.04299 21.0316 2.87058L24.2759 0.919263C24.5894 0.731183 24.9029 0.574451 25.2163 0.449065C25.5298 0.308005 25.8197 0.237476 26.0862 0.237476C26.4153 0.237476 26.6896 0.331515 26.909 0.519595C27.1285 0.692 27.2382 0.981955 27.2382 1.38946V14.508H29.6362C30.0437 14.508 30.3571 14.6098 30.5766 14.8136C30.8117 15.0173 30.9292 15.323 30.9292 15.7305C30.9292 16.138 30.8117 16.4514 30.5766 16.6709C30.3571 16.8903 30.0437 17 29.6362 17H21.5958Z" fill="black" fill-opacity="0.87"/>
</svg>
