<svg width="32" height="32" viewBox="0 0 32 32" fill="none" xmlns="http://www.w3.org/2000/svg">
<path d="M10.1818 29.0909H4.36364C3.97787 29.0909 3.6079 28.9377 3.33512 28.6649C3.06234 28.3921 2.90909 28.0221 2.90909 27.6364V21.8182C2.90909 21.4324 2.75584 21.0624 2.48306 20.7897C2.21028 20.5169 1.84031 20.3636 1.45455 20.3636C1.06878 20.3636 0.698807 20.5169 0.426026 20.7897C0.153246 21.0624 0 21.4324 0 21.8182V27.6364C0 28.7937 0.459739 29.9036 1.27808 30.7219C2.09642 31.5403 3.20633 32 4.36364 32H10.1818C10.5676 32 10.9376 31.8468 11.2103 31.574C11.4831 31.3012 11.6364 30.9312 11.6364 30.5455C11.6364 30.1597 11.4831 29.7897 11.2103 29.5169C10.9376 29.2442 10.5676 29.0909 10.1818 29.0909ZM30.5455 20.3636C30.1597 20.3636 29.7897 20.5169 29.5169 20.7897C29.2442 21.0624 29.0909 21.4324 29.0909 21.8182V27.6364C29.0909 28.0221 28.9377 28.3921 28.6649 28.6649C28.3921 28.9377 28.0221 29.0909 27.6364 29.0909H21.8182C21.4324 29.0909 21.0624 29.2442 20.7897 29.5169C20.5169 29.7897 20.3636 30.1597 20.3636 30.5455C20.3636 30.9312 20.5169 31.3012 20.7897 31.574C21.0624 31.8468 21.4324 32 21.8182 32H27.6364C28.7937 32 29.9036 31.5403 30.7219 30.7219C31.5403 29.9036 32 28.7937 32 27.6364V21.8182C32 21.4324 31.8468 21.0624 31.574 20.7897C31.3012 20.5169 30.9312 20.3636 30.5455 20.3636ZM27.6364 0H21.8182C21.4324 0 21.0624 0.153246 20.7897 0.426026C20.5169 0.698807 20.3636 1.06878 20.3636 1.45455C20.3636 1.84031 20.5169 2.21028 20.7897 2.48306C21.0624 2.75584 21.4324 2.90909 21.8182 2.90909H27.6364C28.0221 2.90909 28.3921 3.06234 28.6649 3.33512C28.9377 3.6079 29.0909 3.97787 29.0909 4.36364V10.1818C29.0909 10.5676 29.2442 10.9376 29.5169 11.2103C29.7897 11.4831 30.1597 11.6364 30.5455 11.6364C30.9312 11.6364 31.3012 11.4831 31.574 11.2103C31.8468 10.9376 32 10.5676 32 10.1818V4.36364C32 3.20633 31.5403 2.09642 30.7219 1.27808C29.9036 0.459739 28.7937 0 27.6364 0ZM1.45455 11.6364C1.84031 11.6364 2.21028 11.4831 2.48306 11.2103C2.75584 10.9376 2.90909 10.5676 2.90909 10.1818V4.36364C2.90909 3.97787 3.06234 3.6079 3.33512 3.33512C3.6079 3.06234 3.97787 2.90909 4.36364 2.90909H10.1818C10.5676 2.90909 10.9376 2.75584 11.2103 2.48306C11.4831 2.21028 11.6364 1.84031 11.6364 1.45455C11.6364 1.06878 11.4831 0.698807 11.2103 0.426026C10.9376 0.153246 10.5676 0 10.1818 0H4.36364C3.20633 0 2.09642 0.459739 1.27808 1.27808C0.459739 2.09642 0 3.20633 0 4.36364V10.1818C0 10.5676 0.153246 10.9376 0.426026 11.2103C0.698807 11.4831 1.06878 11.6364 1.45455 11.6364ZM13.0909 5.81818H7.27273C6.88696 5.81818 6.51699 5.97143 6.24421 6.24421C5.97143 6.51699 5.81818 6.88696 5.81818 7.27273V13.0909C5.81818 13.4767 5.97143 13.8466 6.24421 14.1194C6.51699 14.3922 6.88696 14.5455 7.27273 14.5455H13.0909C13.4767 14.5455 13.8466 14.3922 14.1194 14.1194C14.3922 13.8466 14.5455 13.4767 14.5455 13.0909V7.27273C14.5455 6.88696 14.3922 6.51699 14.1194 6.24421C13.8466 5.97143 13.4767 5.81818 13.0909 5.81818ZM11.6364 11.6364H8.72727V8.72727H11.6364V11.6364ZM18.9091 14.5455H24.7273C25.113 14.5455 25.483 14.3922 25.7558 14.1194C26.0286 13.8466 26.1818 13.4767 26.1818 13.0909V7.27273C26.1818 6.88696 26.0286 6.51699 25.7558 6.24421C25.483 5.97143 25.113 5.81818 24.7273 5.81818H18.9091C18.5233 5.81818 18.1534 5.97143 17.8806 6.24421C17.6078 6.51699 17.4545 6.88696 17.4545 7.27273V13.0909C17.4545 13.4767 17.6078 13.8466 17.8806 14.1194C18.1534 14.3922 18.5233 14.5455 18.9091 14.5455ZM20.3636 8.72727H23.2727V11.6364H20.3636V8.72727ZM13.0909 17.4545H7.27273C6.88696 17.4545 6.51699 17.6078 6.24421 17.8806C5.97143 18.1534 5.81818 18.5233 5.81818 18.9091V24.7273C5.81818 25.113 5.97143 25.483 6.24421 25.7558C6.51699 26.0286 6.88696 26.1818 7.27273 26.1818H13.0909C13.4767 26.1818 13.8466 26.0286 14.1194 25.7558C14.3922 25.483 14.5455 25.113 14.5455 24.7273V18.9091C14.5455 18.5233 14.3922 18.1534 14.1194 17.8806C13.8466 17.6078 13.4767 17.4545 13.0909 17.4545ZM11.6364 23.2727H8.72727V20.3636H11.6364V23.2727ZM18.9091 21.8182C19.2949 21.8182 19.6648 21.6649 19.9376 21.3922C20.2104 21.1194 20.3636 20.7494 20.3636 20.3636C20.7494 20.3636 21.1194 20.2104 21.3922 19.9376C21.6649 19.6648 21.8182 19.2949 21.8182 18.9091C21.8182 18.5233 21.6649 18.1534 21.3922 17.8806C21.1194 17.6078 20.7494 17.4545 20.3636 17.4545H18.9091C18.5233 17.4545 18.1534 17.6078 17.8806 17.8806C17.6078 18.1534 17.4545 18.5233 17.4545 18.9091V20.3636C17.4545 20.7494 17.6078 21.1194 17.8806 21.3922C18.1534 21.6649 18.5233 21.8182 18.9091 21.8182ZM24.7273 17.4545C24.3415 17.4545 23.9715 17.6078 23.6988 17.8806C23.426 18.1534 23.2727 18.5233 23.2727 18.9091V23.2727C22.887 23.2727 22.517 23.426 22.2442 23.6988C21.9714 23.9715 21.8182 24.3415 21.8182 24.7273C21.8182 25.113 21.9714 25.483 22.2442 25.7558C22.517 26.0286 22.887 26.1818 23.2727 26.1818H24.7273C25.113 26.1818 25.483 26.0286 25.7558 25.7558C26.0286 25.483 26.1818 25.113 26.1818 24.7273V18.9091C26.1818 18.5233 26.0286 18.1534 25.7558 17.8806C25.483 17.6078 25.113 17.4545 24.7273 17.4545ZM18.9091 23.2727C18.6214 23.2727 18.3402 23.358 18.101 23.5179C17.8618 23.6777 17.6754 23.9049 17.5653 24.1706C17.4552 24.4364 17.4264 24.7289 17.4825 25.011C17.5386 25.2932 17.6772 25.5524 17.8806 25.7558C18.084 25.9592 18.3432 26.0977 18.6253 26.1539C18.9075 26.21 19.1999 26.1812 19.4657 26.0711C19.7315 25.961 19.9587 25.7746 20.1185 25.5354C20.2783 25.2962 20.3636 25.015 20.3636 24.7273C20.3636 24.3415 20.2104 23.9715 19.9376 23.6988C19.6648 23.426 19.2949 23.2727 18.9091 23.2727Z" fill="black" fill-opacity="0.87"/>
</svg>
