<svg width="69" height="68" viewBox="0 0 69 68" fill="none" xmlns="http://www.w3.org/2000/svg">
<path d="M57.9792 30.5895C59.3693 30.2451 58.4899 27.0764 54.2747 17.0741C49.8057 6.48913 48.4347 4.31678 47.0078 5.2739C45.0616 6.61426 55.7168 31.0885 57.9792 30.5895Z" fill="#0081DF"/>
<path d="M12.983 54.0268C14.3071 58.1024 15.176 58.3995 24.9868 58.1515C35.1202 57.906 36.9625 57.5004 37.0737 55.5976C37.2613 52.1466 34.557 51.3515 22.008 51.0302C12.7494 50.7984 12.0056 51.0187 12.983 54.0268Z" fill="#0081DF"/>
<path d="M19.6754 26.9422C20.5887 29.8853 21.5178 30.7635 26.1142 33.0895C39.7751 39.937 48.99 45.9119 47.0973 40.2187C46.3407 37.8898 43.9324 36.3549 28.2193 27.8139C19.5108 23.1335 18.4793 22.9966 19.6754 26.9422Z" fill="#0081DF"/>
</svg>
