<svg width="127" height="127" viewBox="0 0 127 127" fill="none" xmlns="http://www.w3.org/2000/svg">
<rect x="22.2266" y="26.4585" width="82.55" height="74.0833" fill="#F9A602"/>
<path d="M63.5 0C28.4299 0 0 28.4299 0 63.5C0 98.5701 28.4299 127 63.5 127C98.5701 127 127 98.5701 127 63.5C127 28.4299 98.5701 0 63.5 0ZM58.6398 29.8897L61.3683 42.4549C53.3735 44.2246 46.0219 46.5261 46.6173 55.454H56.0121V88.894H27.7115V57.6399C27.7216 32.8018 45.9573 30.7809 58.6398 29.8897ZM96.5523 29.8897L99.2885 42.4549C91.2937 44.2246 83.9421 46.5261 84.5374 55.454H93.9323V88.894H65.6317V57.6399C65.6416 32.8018 83.8697 30.7809 96.5523 29.8897Z" fill="white"/>
</svg>
